<svg xmlns="http://www.w3.org/2000/svg" viewBox="-18133 -20939 168.553 137">
  <defs>
    <style>
      .cls-1 {
        opacity: 0.04;
      }

      .cls-2 {
        fill: #666;
      }
    </style>
  </defs>
  <g id="blogging" class="cls-1" transform="translate(-18133 -20986.923)">
    <g id="Group_80" data-name="Group 80" transform="translate(0 47.923)">
      <g id="Group_79" data-name="Group 79">
        <path id="Path_956" data-name="Path 956" class="cls-2" d="M165.2,47.923H3.358A3.357,3.357,0,0,0,0,51.281v106.2a3.357,3.357,0,0,0,3.358,3.358H62.564v17.374H50.653a3.358,3.358,0,0,0,0,6.715H117.9a3.358,3.358,0,1,0,0-6.715H105.99V160.834H165.2a3.357,3.357,0,0,0,3.358-3.358V51.281A3.357,3.357,0,0,0,165.2,47.923ZM99.275,178.208h-30V160.834h30Zm62.564-24.09H6.715V54.638H161.838v99.48Z" transform="translate(0 -47.923)"/>
      </g>
    </g>
    <g id="Group_82" data-name="Group 82" transform="translate(14.996 62.492)">
      <g id="Group_81" data-name="Group 81">
        <path id="Path_957" data-name="Path 957" class="cls-2" d="M109.123,92.178H48.909a3.357,3.357,0,0,0-3.358,3.358v43.4a3.357,3.357,0,0,0,3.358,3.358h60.215a3.357,3.357,0,0,0,3.358-3.358V95.536A3.358,3.358,0,0,0,109.123,92.178Zm-51.953,43.4L67.841,124.9l10.671,10.671Zm48.6,0h-17.8a3.346,3.346,0,0,0-.279-.32l-5.768-5.768,13.064-13.064L105.766,127.2v8.371Zm0-17.868L97.358,109.3a3.358,3.358,0,0,0-4.748,0L77.171,124.736l-6.956-6.956a3.358,3.358,0,0,0-4.749,0l-13.2,13.2V98.893h53.5Z" transform="translate(-45.551 -92.178)"/>
      </g>
    </g>
    <g id="Group_84" data-name="Group 84" transform="translate(14.996 60.141)">
      <g id="Group_83" data-name="Group 83">
        <path id="Path_958" data-name="Path 958" class="cls-2" d="M183.722,93.435l-6.078-6.078a7.943,7.943,0,0,0-11.221,0l-43.569,43.569a3.341,3.341,0,0,0-.839,1.4h0v0l-.008.025-4.716,15.584H48.909a3.358,3.358,0,0,0,0,6.715h70.98a3.34,3.34,0,0,0,1.38-.3l17.483-5.291h0a3.353,3.353,0,0,0,1.4-.839l43.569-43.569a7.934,7.934,0,0,0,0-11.22Zm-58.909,52.831,2.006-6.627,4.622,4.622Zm12.965-5.164-7.8-7.8,34.085-34.085,7.8,7.8Zm41.2-41.195-2.362,2.361-7.8-7.8,2.362-2.361a1.22,1.22,0,0,1,1.724,0l6.078,6.078a1.219,1.219,0,0,1,0,1.724Z" transform="translate(-45.551 -85.037)"/>
      </g>
    </g>
    <g id="Group_86" data-name="Group 86" transform="translate(14.996 139.19)">
      <g id="Group_85" data-name="Group 85">
        <path id="Path_959" data-name="Path 959" class="cls-2" d="M166.2,325.158H48.909a3.358,3.358,0,0,0,0,6.715H166.2a3.358,3.358,0,0,0,0-6.715Z" transform="translate(-45.551 -325.158)"/>
      </g>
    </g>
    <g id="Group_88" data-name="Group 88" transform="translate(145.386 139.19)">
      <g id="Group_87" data-name="Group 87">
        <path id="Path_960" data-name="Path 960" class="cls-2" d="M446.8,325.158h-1.814a3.358,3.358,0,0,0,0,6.715H446.8a3.358,3.358,0,1,0,0-6.715Z" transform="translate(-441.625 -325.158)"/>
      </g>
    </g>
  </g>
</svg>
