<svg xmlns="http://www.w3.org/2000/svg" viewBox="-18502.1 -20939 137.1 137.098">
  <g id="Group_78" data-name="Group 78" transform="translate(-18502.1 -20939)">
    <path id="Path_955" opacity="0.03" data-name="Path 955"  d="M129.714,7.378a25.17,25.17,0,0,0-35.6-.009L18.4,82.648a4.247,4.247,0,0,0-1.007,1.572L.256,131.348a4.285,4.285,0,0,0,4.032,5.75,4.228,4.228,0,0,0,1.255-.189l42.624-13.076a4.279,4.279,0,0,0,1.774-1.063l79.778-79.778a25.165,25.165,0,0,0,0-35.615ZM43.24,116.383l-15.955,4.9a18.3,18.3,0,0,0-4.353-7.12,23.153,23.153,0,0,0-5.809-4.117l7.3-20.076h9.854v8.569a4.28,4.28,0,0,0,4.284,4.284h7.562Zm63.065-62.1-52.2,52.2,1.5-7.056a4.292,4.292,0,0,0-4.19-5.175H42.846V85.686A4.286,4.286,0,0,0,38.561,81.4H31.8L82.754,30.74l.051.047a16.617,16.617,0,1,1,23.5,23.5Zm17.351-17.351-3.993,4a25.066,25.066,0,0,0-23.521-23.5l4.019-3.989.009-.009a16.612,16.612,0,1,1,23.486,23.5ZM95.513,35.53,52.67,78.373a4.284,4.284,0,1,0,6.058,6.058l42.843-42.843a4.284,4.284,0,0,0-6.058-6.058Z" transform="translate(0.001)"/>
  </g>
</svg>
