<svg xmlns="http://www.w3.org/2000/svg" viewBox="-17689.6 -20936.199 136.803 136.803">
  <defs>
    <style>
      .cls-1 {
        opacity: 0.04;
      }

      .cls-2 {
        fill: #555;
      }
    </style>
  </defs>
  <g id="student" class="cls-1" transform="translate(-17689.6 -20936.201)">
    <g id="Group_90" data-name="Group 90" transform="translate(0 0.001)">
      <g id="Group_89" data-name="Group 89" transform="translate(0 0)">
        <path id="Path_961" data-name="Path 961" class="cls-2" d="M182.135,205.966a9.1,9.1,0,0,0,8.995-7.889l8.333-6.247a2.28,2.28,0,0,0-2.736-3.648l-5.812,4.359a6.825,6.825,0,0,0-6.5-4.815H175.3a6.848,6.848,0,0,0-6.84,6.84,6.849,6.849,0,0,0-6.84-6.84h-9.121a6.825,6.825,0,0,0-6.5,4.815l-5.812-4.359a2.28,2.28,0,0,0-2.736,3.648l8.333,6.247a9.1,9.1,0,0,0,8.995,7.889h4.56a9.129,9.129,0,0,0,9.12-9.12,9.129,9.129,0,0,0,9.12,9.12Zm-18.24-9.12a4.566,4.566,0,0,1-4.56,4.56h-4.56a4.566,4.566,0,0,1-4.56-4.56v-2.28a2.282,2.282,0,0,1,2.28-2.28h9.12a2.282,2.282,0,0,1,2.28,2.28v2.28Zm9.12,0v-2.28a2.282,2.282,0,0,1,2.28-2.28h9.12a2.282,2.282,0,0,1,2.28,2.28v2.28a4.566,4.566,0,0,1-4.56,4.56h-4.56A4.566,4.566,0,0,1,173.015,196.846Z" transform="translate(-100.053 -137.566)"/>
        <path id="Path_962" data-name="Path 962" class="cls-2" d="M136.735,421.617l-2.33-9.286c-1.17-3.516-8.092-14.825-47.762-15.133v-2.387a2.28,2.28,0,0,0-4.56,0v4.56c0,.016.009.03.009.046s-.009.025-.009.041c-.009,1.391-.467,13.594-13.68,13.594s-13.671-12.287-13.68-13.68v-4.56a2.28,2.28,0,0,0-4.56,0v2.3c-29.545.232-44.34,4.947-47.813,15.383l-2.28,9.12a2.28,2.28,0,0,0,4.423,1.108l2.23-8.954c2.649-7.946,16.918-11.915,43.59-12.114.828,6.528,5.264,15.953,18.09,15.953s17.258-9.368,18.09-15.862c31.25.23,42.114,7.606,43.54,11.856l2.28,9.12a2.281,2.281,0,0,0,2.209,1.726,2.212,2.212,0,0,0,.554-.068A2.281,2.281,0,0,0,136.735,421.617Z" transform="translate(0 -287.65)"/>
        <path id="Path_963" data-name="Path 963" class="cls-2" d="M53.19,11.382l52.441,6.84a2.527,2.527,0,0,0,.294.018,2.588,2.588,0,0,0,.294-.018l49.866-6.5v7.916c-1.429,1.607-4.56,5.618-4.56,10.007a6.84,6.84,0,0,0,13.68,0c0-4.389-3.13-8.4-4.56-10.007V9.12a2.256,2.256,0,0,0-.171-.85,2.225,2.225,0,0,0-.155-.253,2.255,2.255,0,0,0-.3-.449,1.968,1.968,0,0,0-.267-.21,2.141,2.141,0,0,0-.408-.278,2.027,2.027,0,0,0-.351-.112,2.041,2.041,0,0,0-.333-.11L106.219.018a2.549,2.549,0,0,0-.588,0L53.19,6.858a2.281,2.281,0,0,0,0,4.524ZM160.646,29.64a2.28,2.28,0,1,1-4.56,0c0-1.893,1.163-4,2.28-5.561C159.483,25.637,160.646,27.748,160.646,29.64ZM105.925,4.578,140.739,9.12l-34.814,4.542L71.111,9.12Z" transform="translate(-37.523 -0.001)"/>
        <path id="Path_964" data-name="Path 964" class="cls-2" d="M236.244,307.837a9.252,9.252,0,0,1-10.506,0,2.28,2.28,0,0,0-3.2,3.247c.3.3,3.1,2.948,8.452,2.948s8.151-2.647,8.452-2.948a2.263,2.263,0,0,0,.014-3.183A2.3,2.3,0,0,0,236.244,307.837Z" transform="translate(-162.587 -225.114)"/>
        <path id="Path_965" data-name="Path 965" class="cls-2" d="M106.963,158.547A6.853,6.853,0,0,0,102.4,165v9.12a6.851,6.851,0,0,0,5.13,6.623c1.22,3.6,4.59,13.354,6.512,17.2,3.621,7.244,13.888,19.5,29.4,19.5s25.778-12.257,29.4-19.5c1.922-3.842,5.292-13.6,6.512-17.2a6.852,6.852,0,0,0,5.13-6.623V165a6.853,6.853,0,0,0-4.56-6.45v-2.67a2.28,2.28,0,1,0-4.56,0v4.56a2.279,2.279,0,0,0,2.28,2.28,2.282,2.282,0,0,1,2.28,2.28v9.12a2.282,2.282,0,0,1-2.28,2.28,2.273,2.273,0,0,0-2.162,1.56c-.048.134-4.537,13.578-6.717,17.942-.349.693-8.682,16.979-25.322,16.979S118.47,196.592,118.122,195.9c-2.182-4.364-6.669-17.807-6.717-17.942a2.275,2.275,0,0,0-2.162-1.56,2.282,2.282,0,0,1-2.28-2.28V165a2.282,2.282,0,0,1,2.28-2.28,2.279,2.279,0,0,0,2.28-2.28v-4.56a2.28,2.28,0,0,0-4.56,0Z" transform="translate(-75.042 -112.558)"/>
        <path id="Path_966" data-name="Path 966" class="cls-2" d="M121.751,59.73a2.279,2.279,0,0,0-2.28,2.28V77.97a2.282,2.282,0,0,0,1.261,2.041c.579.287,14.4,7.079,35.22,7.079s34.641-6.792,35.22-7.079a2.282,2.282,0,0,0,1.261-2.041V62.01a2.28,2.28,0,0,0-4.56,0V76.5a84.58,84.58,0,0,1-31.921,6.035A84.58,84.58,0,0,1,124.031,76.5V62.01A2.279,2.279,0,0,0,121.751,59.73Z" transform="translate(-87.549 -43.771)"/>
      </g>
    </g>
  </g>
</svg>
