<svg xmlns="http://www.w3.org/2000/svg" viewBox="-17786 -20481 20 20">
  <defs>
    <style>
      .cls-1 {
        fill: #4f2684;
      }
    </style>
  </defs>
  <g id="pencil" transform="translate(-17785.999 -20481)">
    <g id="Pencil-2" data-name="Pencil" transform="translate(-0.001)">
      <g id="Group_100" data-name="Group 100">
        <path id="Path_970" data-name="Path 970" class="cls-1" d="M18.922,1.076a3.672,3.672,0,0,0-5.193,0L2.683,12.057a.62.62,0,0,0-.147.229l-2.5,6.875A.625.625,0,0,0,.625,20a.617.617,0,0,0,.183-.028l6.218-1.908a.624.624,0,0,0,.259-.155L18.923,6.272a3.671,3.671,0,0,0,0-5.2ZM6.307,16.978l-2.327.715a2.67,2.67,0,0,0-.635-1.039,3.378,3.378,0,0,0-.848-.6l1.065-2.929H5v1.25A.624.624,0,0,0,5.625,15h1.1Zm9.2-9.059L7.892,15.534l.219-1.029A.626.626,0,0,0,7.5,13.75H6.25V12.5a.625.625,0,0,0-.625-.625H4.638l7.433-7.391.007.007a2.424,2.424,0,1,1,3.428,3.428Zm2.531-2.531-.583.583a3.657,3.657,0,0,0-3.431-3.428l.586-.582h0a2.423,2.423,0,1,1,3.426,3.428Zm-4.106-.205-6.25,6.25a.625.625,0,1,0,.884.884l6.25-6.25a.625.625,0,0,0-.884-.884Z" transform="translate(0.001)"/>
      </g>
    </g>
  </g>
</svg>
